<svg xmlns="http://www.w3.org/2000/svg" width="235.347" height="255.452" viewBox="0 0 235.347 255.452"><defs><style>.a{fill:#ededed;}.b,.e,.g{fill:#0e6795;}.b{opacity:0.256;}.c,.d,.h{fill:none;}.d{stroke:#707070;stroke-width:3px;opacity:0.59;}.e{opacity:0.26;}.f{fill:#f4f5f7;opacity:0.5;}.g,.h{opacity:0.549;}.h{stroke:#0e6795;stroke-linecap:round;stroke-width:2px;}</style></defs><g transform="translate(-956 -296.548)"><g transform="translate(-2)"><circle class="a" cx="115.5" cy="115.5" r="115.5" transform="translate(958 321)"/><g transform="translate(-394.153 -48.658)"><path class="b" d="M172.62,162.335,125.307,114.58a67.425,67.425,0,1,0-10.233,10.366l47,47.446a7.281,7.281,0,0,0,10.278.266A7.329,7.329,0,0,0,172.62,162.335Zm-100.3-36.814a53.24,53.24,0,1,1,37.655-15.594A52.912,52.912,0,0,1,72.324,125.522Z" transform="translate(1398.004 414.771)"/><path class="c" d="M4.5,11.4v1.817H6.317L11.676,7.86,9.859,6.043Zm8.581-4.947a.483.483,0,0,0,0-.683L11.947,4.638a.483.483,0,0,0-.683,0l-.887.887,1.817,1.817.887-.887Z" transform="translate(1559.577 340.71)"/><path class="d" d="M174.75,164.335l-47.912-48.361a68.28,68.28,0,1,0-10.363,10.5l47.6,48.047a7.373,7.373,0,0,0,10.408.269A7.422,7.422,0,0,0,174.75,164.335ZM73.183,127.055a53.915,53.915,0,1,1,38.132-15.791A53.582,53.582,0,0,1,73.183,127.055Z" transform="translate(1392.118 415.113)"/><rect class="e" width="1.015" height="5.757" transform="translate(1375.701 527.655)"/><rect class="e" width="1.015" height="5.757" transform="translate(1379.088 530.028) rotate(90)"/><rect class="e" width="1.015" height="5.757" transform="translate(1488.001 386.622)"/><rect class="e" width="1.015" height="5.757" transform="translate(1491.388 388.991) rotate(90)"/><path class="f" d="M949.749,825.923a1.244,1.244,0,0,1-.693-1.5.6.6,0,0,0,.027-.138h0a.623.623,0,0,0-1.12-.413h0a.607.607,0,0,0-.07.121,1.244,1.244,0,0,1-1.5.694.605.605,0,0,0-.138-.027h0a.624.624,0,0,0-.413,1.12h0a.6.6,0,0,0,.121.07,1.244,1.244,0,0,1,.693,1.5.621.621,0,0,0-.027.138h0a.624.624,0,0,0,1.12.413h0a.612.612,0,0,0,.07-.121,1.244,1.244,0,0,1,1.5-.694.6.6,0,0,0,.138.027h0a.623.623,0,0,0,.413-1.12h0A.6.6,0,0,0,949.749,825.923Z" transform="translate(624.502 -230.803)"/><path class="e" d="M315.339,620.863a1.244,1.244,0,0,1-.694-1.5.593.593,0,0,0,.027-.138h0a.623.623,0,0,0-1.12-.413h0a.6.6,0,0,0-.07.121,1.244,1.244,0,0,1-1.5.694.605.605,0,0,0-.138-.027h0a.623.623,0,0,0-.413,1.12h0a.59.59,0,0,0,.121.07,1.244,1.244,0,0,1,.694,1.5.6.6,0,0,0-.027.138h0a.623.623,0,0,0,1.12.413h0a.6.6,0,0,0,.07-.121,1.244,1.244,0,0,1,1.5-.693.592.592,0,0,0,.138.027h0a.623.623,0,0,0,.413-1.12h0A.6.6,0,0,0,315.339,620.863Z" transform="translate(1087.698 -81.084)"/><path class="e" d="M843.749,121.543a1.244,1.244,0,0,1-.694-1.5.6.6,0,0,0,.027-.138h0a.623.623,0,0,0-1.12-.413h0a.593.593,0,0,0-.07.121,1.244,1.244,0,0,1-1.5.694.6.6,0,0,0-.138-.027h0a.623.623,0,0,0-.413,1.12h0a.6.6,0,0,0,.122.07,1.244,1.244,0,0,1,.694,1.5.585.585,0,0,0-.027.138h0a.623.623,0,0,0,1.12.413h0a.594.594,0,0,0,.07-.121,1.244,1.244,0,0,1,1.5-.694.6.6,0,0,0,.138.027h0a.623.623,0,0,0,.413-1.12h0A.6.6,0,0,0,843.749,121.543Z" transform="translate(699.182 298.854)"/><ellipse class="f" cx="2.032" cy="2.032" rx="2.032" ry="2.032" transform="translate(1583.436 469.458)"/><ellipse class="e" cx="2.032" cy="2.032" rx="2.032" ry="2.032" transform="translate(1389.666 523.407)"/><ellipse class="f" cx="2.032" cy="2.032" rx="2.032" ry="2.032" transform="translate(1562.566 513.384)"/><ellipse class="e" cx="2.032" cy="2.032" rx="2.032" ry="2.032" transform="translate(1387.638 410.592)"/><ellipse class="e" cx="2.032" cy="2.032" rx="2.032" ry="2.032" transform="translate(1366.153 466.028)"/></g></g><circle class="g" cx="3" cy="3" r="3" transform="translate(1051 431)"/><circle class="g" cx="3" cy="3" r="3" transform="translate(1081 431)"/><path class="h" d="M0-9.558s6.853-3.649,13.536-3.649,13.2,3.649,13.2,3.649" transform="translate(1056.5 464.5)"/></g></svg>